solid Front
facet normal 0.9999989975451794 -0.001415947963880798 -2.623973209068683e-14
  outer loop
    vertex 94.11176565838977 79.00983244181634 3.0000000000001315
    vertex 94.10468591857044 74.00983745409016 6.000000000000054
    vertex 94.10468591857014 74.00983745408979 3.0000000000001896
  endloop
endfacet
facet normal 0.9999989975451794 -0.001415947963880798 -2.623973209068683e-14
  outer loop
    vertex 94.10468591857044 74.00983745409016 6.000000000000054
    vertex 94.11176565838977 79.00983244181634 3.0000000000001315
    vertex 94.11176565838963 79.00983244181631 6.000000000000196
  endloop
endfacet
facet normal 4.0331758446662763e-16 -7.402990514564804e-15 -1.0
  outer loop
    vertex 71.11178871485023 79.0423992449837 3.0000000000001434
    vertex 94.10468591857014 74.00983745408979 3.0000000000001896
    vertex 71.10470897503151 74.04240425725844 3.000000000000159
  endloop
endfacet
facet normal 4.0331758446662763e-16 -7.402990514564804e-15 -1.0
  outer loop
    vertex 94.10468591857014 74.00983745408979 3.0000000000001896
    vertex 71.11178871485023 79.0423992449837 3.0000000000001434
    vertex 94.11176565838977 79.00983244181634 3.0000000000001315
  endloop
endfacet
facet normal 0.9999989975451796 -0.001415947963798941 1.8725564858844423e-14
  outer loop
    vertex 91.07636996665826 54.014105347078264 2.6225688287695446e-13
    vertex 91.09619323815139 68.01409131271028 3.00000000000015
    vertex 91.07636996665835 54.01410534707806 3.0000000000002105
  endloop
endfacet
facet normal 0.9999989975451796 -0.001415947963798941 1.8725564858844423e-14
  outer loop
    vertex 91.09619323815139 68.01409131271028 3.00000000000015
    vertex 91.07636996665826 54.014105347078264 2.6225688287695446e-13
    vertex 91.0961932381516 68.01409131271039 3.9832026565989054e-13
  endloop
endfacet
facet normal -0.0014159479638279188 -0.9999989975451796 -3.680132506729715e-15
  outer loop
    vertex 91.07636996665826 54.014105347078264 2.6225688287695446e-13
    vertex 73.07638801084528 54.039592410427154 3.0000000000000733
    vertex 73.07638801084504 54.03959241042697 2.580269331531326e-13
  endloop
endfacet
facet normal -0.0014159479638279188 -0.9999989975451796 -3.680132506729715e-15
  outer loop
    vertex 73.07638801084528 54.039592410427154 3.0000000000000733
    vertex 91.07636996665826 54.014105347078264 2.6225688287695446e-13
    vertex 91.07636996665835 54.01410534707806 3.0000000000002105
  endloop
endfacet
facet normal -0.9999989975451796 0.0014159479638287174 -1.0684901001028222e-17
  outer loop
    vertex 73.07638801084528 54.039592410427154 3.0000000000000733
    vertex 73.09621128233888 68.03957837605965 2.319422431895646e-13
    vertex 73.07638801084504 54.03959241042697 2.580269331531326e-13
  endloop
endfacet
facet normal -0.9999989975451796 0.0014159479638287174 -1.0684901001028222e-17
  outer loop
    vertex 73.09621128233888 68.03957837605965 2.319422431895646e-13
    vertex 73.07638801084528 54.039592410427154 3.0000000000000733
    vertex 73.09621128233864 68.03957837605951 3.0000000000001217
  endloop
endfacet
facet normal -1.1355173964548215e-15 1.5837417791161112e-15 -1.0
  outer loop
    vertex 0.12177152488989419 86.14292453323189 2.509770169467629e-13
    vertex 73.09621128233888 68.03957837605965 2.319422431895646e-13
    vertex 73.07638801084504 54.03959241042697 2.580269331531326e-13
  endloop
endfacet
facet normal -1.1355173964548215e-15 1.5837417791161112e-15 -1.0
  outer loop
    vertex 73.09621128233888 68.03957837605965 2.319422431895646e-13
    vertex 0.12177152488989419 86.14292453323189 2.509770169467629e-13
    vertex 101.12167027695254 85.99991378888583 2.1149748619109232e-13
  endloop
endfacet
facet normal -1.1355173964548215e-15 1.5837417791161112e-15 -1.0
  outer loop
    vertex 73.09621128233888 68.03957837605965 2.319422431895646e-13
    vertex 101.12167027695254 85.99991378888583 2.1149748619109232e-13
    vertex 91.0961932381516 68.01409131271039 3.9832026565989054e-13
  endloop
endfacet
facet normal -1.1355173964548215e-15 1.5837417791161112e-15 -1.0
  outer loop
    vertex 91.0961932381516 68.01409131271039 3.9832026565989054e-13
    vertex 101.12167027695254 85.99991378888583 2.1149748619109232e-13
    vertex 100.9998987520629 0.0 0.0
  endloop
endfacet
facet normal -1.1355173964548215e-15 1.5837417791161112e-15 -1.0
  outer loop
    vertex 0.12177152488989419 86.14292453323189 2.509770169467629e-13
    vertex 100.9998987520629 0.0 0.0
    vertex 1.6637802247032595e-13 0.1430107443469604 1.903477375719831e-13
  endloop
endfacet
facet normal -1.1355173964548215e-15 1.5837417791161112e-15 -1.0
  outer loop
    vertex 100.9998987520629 0.0 0.0
    vertex 0.12177152488989419 86.14292453323189 2.509770169467629e-13
    vertex 73.07638801084504 54.03959241042697 2.580269331531326e-13
  endloop
endfacet
facet normal -1.1355173964548215e-15 1.5837417791161112e-15 -1.0
  outer loop
    vertex 100.9998987520629 0.0 0.0
    vertex 73.07638801084504 54.03959241042697 2.580269331531326e-13
    vertex 91.07636996665826 54.014105347078264 2.6225688287695446e-13
  endloop
endfacet
facet normal -1.1355173964548215e-15 1.5837417791161112e-15 -1.0
  outer loop
    vertex 100.9998987520629 0.0 0.0
    vertex 91.07636996665826 54.014105347078264 2.6225688287695446e-13
    vertex 91.0961932381516 68.01409131271039 3.9832026565989054e-13
  endloop
endfacet
facet normal -0.0014159479638290815 -0.9999989975451796 4.957696128377966e-14
  outer loop
    vertex 100.99989875206305 3.7223557569632245e-13 2.99999999999997
    vertex 1.6637802247032595e-13 0.1430107443469604 1.903477375719831e-13
    vertex 100.9998987520629 0.0 0.0
  endloop
endfacet
facet normal -0.0014159479638290815 -0.9999989975451796 4.957696128377966e-14
  outer loop
    vertex 1.6637802247032595e-13 0.1430107443469604 1.903477375719831e-13
    vertex 100.99989875206305 3.7223557569632245e-13 2.99999999999997
    vertex 0.0 0.14301074434688565 3.0000000000001013
  endloop
endfacet
facet normal 0.0014159479638124577 0.9999989975451796 -1.0159328079647986e-13
  outer loop
    vertex 71.11178871485023 79.0423992449837 3.0000000000001434
    vertex 94.11176565838963 79.00983244181631 6.000000000000196
    vertex 94.11176565838977 79.00983244181634 3.0000000000001315
  endloop
endfacet
facet normal 0.0014159479638124577 0.9999989975451796 -1.0159328079647986e-13
  outer loop
    vertex 94.11176565838963 79.00983244181631 6.000000000000196
    vertex 71.11178871485023 79.0423992449837 3.0000000000001434
    vertex 71.11178871485069 79.04239924498434 6.000000000000282
  endloop
endfacet
facet normal -1.3275294285906438e-15 2.7747129090047174e-15 -1.0
  outer loop
    vertex 71.10470897503151 74.04240425725844 3.000000000000159
    vertex 73.09621128233864 68.03957837605951 3.0000000000001217
    vertex 73.07638801084528 54.039592410427154 3.0000000000000733
  endloop
endfacet
facet normal -1.3275294285906438e-15 2.7747129090047174e-15 -1.0
  outer loop
    vertex 73.09621128233864 68.03957837605951 3.0000000000001217
    vertex 71.10470897503151 74.04240425725844 3.000000000000159
    vertex 94.10468591857014 74.00983745408979 3.0000000000001896
  endloop
endfacet
facet normal -1.3275294285906438e-15 2.7747129090047174e-15 -1.0
  outer loop
    vertex 73.09621128233864 68.03957837605951 3.0000000000001217
    vertex 94.10468591857014 74.00983745408979 3.0000000000001896
    vertex 91.09619323815139 68.01409131271028 3.00000000000015
  endloop
endfacet
facet normal -1.3275294285906438e-15 2.7747129090047174e-15 -1.0
  outer loop
    vertex 0.1217715248897673 86.14292453323158 3.000000000000343
    vertex 71.11178871485023 79.0423992449837 3.0000000000001434
    vertex 71.10470897503151 74.04240425725844 3.000000000000159
  endloop
endfacet
facet normal -1.3275294285906438e-15 2.7747129090047174e-15 -1.0
  outer loop
    vertex 71.11178871485023 79.0423992449837 3.0000000000001434
    vertex 0.1217715248897673 86.14292453323158 3.000000000000343
    vertex 101.12167027695232 85.99991378888552 3.000000000000205
  endloop
endfacet
facet normal -1.3275294285906438e-15 2.7747129090047174e-15 -1.0
  outer loop
    vertex 71.11178871485023 79.0423992449837 3.0000000000001434
    vertex 101.12167027695232 85.99991378888552 3.000000000000205
    vertex 94.11176565838977 79.00983244181634 3.0000000000001315
  endloop
endfacet
facet normal -1.3275294285906438e-15 2.7747129090047174e-15 -1.0
  outer loop
    vertex 94.11176565838977 79.00983244181634 3.0000000000001315
    vertex 101.12167027695232 85.99991378888552 3.000000000000205
    vertex 100.99989875206305 3.7223557569632245e-13 2.99999999999997
  endloop
endfacet
facet normal -1.3275294285906438e-15 2.7747129090047174e-15 -1.0
  outer loop
    vertex 0.1217715248897673 86.14292453323158 3.000000000000343
    vertex 100.99989875206305 3.7223557569632245e-13 2.99999999999997
    vertex 0.0 0.14301074434688565 3.0000000000001013
  endloop
endfacet
facet normal -1.3275294285906438e-15 2.7747129090047174e-15 -1.0
  outer loop
    vertex 100.99989875206305 3.7223557569632245e-13 2.99999999999997
    vertex 0.1217715248897673 86.14292453323158 3.000000000000343
    vertex 73.07638801084528 54.039592410427154 3.0000000000000733
  endloop
endfacet
facet normal -1.3275294285906438e-15 2.7747129090047174e-15 -1.0
  outer loop
    vertex 73.07638801084528 54.039592410427154 3.0000000000000733
    vertex 0.1217715248897673 86.14292453323158 3.000000000000343
    vertex 71.10470897503151 74.04240425725844 3.000000000000159
  endloop
endfacet
facet normal -1.3275294285906438e-15 2.7747129090047174e-15 -1.0
  outer loop
    vertex 100.99989875206305 3.7223557569632245e-13 2.99999999999997
    vertex 73.07638801084528 54.039592410427154 3.0000000000000733
    vertex 91.07636996665835 54.01410534707806 3.0000000000002105
  endloop
endfacet
facet normal -1.3275294285906438e-15 2.7747129090047174e-15 -1.0
  outer loop
    vertex 100.99989875206305 3.7223557569632245e-13 2.99999999999997
    vertex 91.07636996665835 54.01410534707806 3.0000000000002105
    vertex 91.09619323815139 68.01409131271028 3.00000000000015
  endloop
endfacet
facet normal -1.3275294285906438e-15 2.7747129090047174e-15 -1.0
  outer loop
    vertex 100.99989875206305 3.7223557569632245e-13 2.99999999999997
    vertex 91.09619323815139 68.01409131271028 3.00000000000015
    vertex 94.10468591857014 74.00983745408979 3.0000000000001896
  endloop
endfacet
facet normal -1.3275294285906438e-15 2.7747129090047174e-15 -1.0
  outer loop
    vertex 100.99989875206305 3.7223557569632245e-13 2.99999999999997
    vertex 94.10468591857014 74.00983745408979 3.0000000000001896
    vertex 94.11176565838977 79.00983244181634 3.0000000000001315
  endloop
endfacet
facet normal 2.4036282608106184e-15 -3.4266030525643855e-14 1.0
  outer loop
    vertex 94.10468591857044 74.00983745409016 6.000000000000054
    vertex 71.11178871485069 79.04239924498434 6.000000000000282
    vertex 71.10470897503127 74.04240425725799 6.000000000000082
  endloop
endfacet
facet normal 2.4036282608106184e-15 -3.4266030525643855e-14 1.0
  outer loop
    vertex 71.11178871485069 79.04239924498434 6.000000000000282
    vertex 94.10468591857044 74.00983745409016 6.000000000000054
    vertex 94.11176565838963 79.00983244181631 6.000000000000196
  endloop
endfacet
facet normal 0.9999989975451796 -0.0014159479638309283 1.5051132876192122e-14
  outer loop
    vertex 101.12167027695254 85.99991378888583 2.1149748619109232e-13
    vertex 100.99989875206305 3.7223557569632245e-13 2.99999999999997
    vertex 100.9998987520629 0.0 0.0
  endloop
endfacet
facet normal 0.9999989975451796 -0.0014159479638309283 1.5051132876192122e-14
  outer loop
    vertex 100.99989875206305 3.7223557569632245e-13 2.99999999999997
    vertex 101.12167027695254 85.99991378888583 2.1149748619109232e-13
    vertex 101.12167027695232 85.99991378888552 3.000000000000205
  endloop
endfacet
facet normal 0.0014159479638467514 0.9999989975451794 4.1465406815588585e-14
  outer loop
    vertex 73.09621128233864 68.03957837605951 3.0000000000001217
    vertex 91.0961932381516 68.01409131271039 3.9832026565989054e-13
    vertex 73.09621128233888 68.03957837605965 2.319422431895646e-13
  endloop
endfacet
facet normal 0.0014159479638467514 0.9999989975451794 4.1465406815588585e-14
  outer loop
    vertex 91.0961932381516 68.01409131271039 3.9832026565989054e-13
    vertex 73.09621128233864 68.03957837605951 3.0000000000001217
    vertex 91.09619323815139 68.01409131271028 3.00000000000015
  endloop
endfacet
facet normal 0.001415947963822392 0.9999989975451796 1.0536269206783289e-13
  outer loop
    vertex 0.12177152488989419 86.14292453323189 2.509770169467629e-13
    vertex 101.12167027695232 85.99991378888552 3.000000000000205
    vertex 101.12167027695254 85.99991378888583 2.1149748619109232e-13
  endloop
endfacet
facet normal 0.001415947963822392 0.9999989975451796 1.0536269206783289e-13
  outer loop
    vertex 101.12167027695232 85.99991378888552 3.000000000000205
    vertex 0.12177152488989419 86.14292453323189 2.509770169467629e-13
    vertex 0.1217715248897673 86.14292453323158 3.000000000000343
  endloop
endfacet
facet normal -0.9999989975451794 0.0014159479638342844 -4.878715987255367e-14
  outer loop
    vertex 0.1217715248897673 86.14292453323158 3.000000000000343
    vertex 1.6637802247032595e-13 0.1430107443469604 1.903477375719831e-13
    vertex 0.0 0.14301074434688565 3.0000000000001013
  endloop
endfacet
facet normal -0.9999989975451794 0.0014159479638342844 -4.878715987255367e-14
  outer loop
    vertex 1.6637802247032595e-13 0.1430107443469604 1.903477375719831e-13
    vertex 0.1217715248897673 86.14292453323158 3.000000000000343
    vertex 0.12177152488989419 86.14292453323189 2.509770169467629e-13
  endloop
endfacet
facet normal -0.9999989975451796 0.0014159479638132754 3.379700731043127e-14
  outer loop
    vertex 71.11178871485069 79.04239924498434 6.000000000000282
    vertex 71.10470897503151 74.04240425725844 3.000000000000159
    vertex 71.10470897503127 74.04240425725799 6.000000000000082
  endloop
endfacet
facet normal -0.9999989975451796 0.0014159479638132754 3.379700731043127e-14
  outer loop
    vertex 71.10470897503151 74.04240425725844 3.000000000000159
    vertex 71.11178871485069 79.04239924498434 6.000000000000282
    vertex 71.11178871485023 79.0423992449837 3.0000000000001434
  endloop
endfacet
facet normal -0.0014159479638365092 -0.9999989975451794 -1.5028481838802574e-14
  outer loop
    vertex 94.10468591857014 74.00983745408979 3.0000000000001896
    vertex 71.10470897503127 74.04240425725799 6.000000000000082
    vertex 71.10470897503151 74.04240425725844 3.000000000000159
  endloop
endfacet
facet normal -0.0014159479638365092 -0.9999989975451794 -1.5028481838802574e-14
  outer loop
    vertex 71.10470897503127 74.04240425725799 6.000000000000082
    vertex 94.10468591857014 74.00983745408979 3.0000000000001896
    vertex 94.10468591857044 74.00983745409016 6.000000000000054
  endloop
endfacet
endsolid Front
